<?xml version="1.0" encoding="utf-8"?>
<!-- Generator: Adobe Illustrator 27.4.1, SVG Export Plug-In . SVG Version: 6.00 Build 0)  -->
<svg version="1.1" id="Слой_1" xmlns="http://www.w3.org/2000/svg" xmlns:xlink="http://www.w3.org/1999/xlink" x="0px" y="0px"
	 viewBox="0 0 32 32" style="enable-background:new 0 0 32 32;" xml:space="preserve">
<style type="text/css">
	.st0{fill:none;stroke:#BE1622;stroke-width:0.25;stroke-miterlimit:10;}
	.st1{fill:#1D1D1B;}
	.st2{fill:#BE1622;}
</style>
<polyline class="st0" points="8.5,7.33 8.5,4.96 23.5,4.96 23.5,7.33 "/>
<polyline class="st0" points="22,7.33 22,6.33 10,6.33 10,7.33 "/>
<polyline class="st0" points="8.5,22.96 8.5,25.33 23.5,25.33 23.5,22.96 "/>
<polyline class="st0" points="22,22.96 22,23.96 10,23.96 10,22.96 "/>
<g>
	<g>
		<path class="st1" d="M1.59,15.92V15.6l0.51-0.21c0.04-0.01,0.07-0.04,0.09-0.07s0.03-0.08,0.03-0.14v-4.59
			c0-0.06-0.01-0.1-0.04-0.13c-0.02-0.03-0.05-0.05-0.09-0.07l-0.51-0.22V9.86h1.95v0.31l-0.5,0.22c-0.04,0.01-0.06,0.04-0.09,0.07
			s-0.04,0.08-0.04,0.13v1.92h2.32v-1.92c0-0.06-0.01-0.1-0.04-0.13c-0.02-0.03-0.06-0.05-0.1-0.07l-0.5-0.22V9.86h1.95v0.31
			l-0.5,0.22c-0.04,0.02-0.07,0.04-0.1,0.07c-0.02,0.03-0.04,0.07-0.04,0.13v4.59c0,0.06,0.01,0.11,0.04,0.14s0.06,0.06,0.09,0.07
			l0.5,0.21v0.32H4.61V15.6l0.5-0.21c0.04-0.02,0.07-0.04,0.1-0.07c0.02-0.03,0.04-0.08,0.04-0.14v-2.15H2.92v2.15
			c0,0.06,0.01,0.11,0.03,0.14c0.02,0.03,0.05,0.05,0.09,0.07l0.5,0.21v0.32H1.59z"/>
		<path class="st1" d="M7.26,15.92V15.6l0.51-0.21c0.04-0.01,0.07-0.04,0.09-0.07s0.03-0.08,0.03-0.14v-4.59
			c0-0.06-0.01-0.1-0.04-0.13c-0.02-0.03-0.05-0.05-0.09-0.07l-0.51-0.22V9.86h1.93c0.36,0,0.65,0.04,0.88,0.14
			c0.23,0.09,0.4,0.21,0.53,0.36c0.12,0.15,0.21,0.31,0.26,0.49c0.05,0.18,0.07,0.36,0.07,0.54c0,0.33-0.06,0.61-0.17,0.85
			c-0.11,0.23-0.26,0.42-0.42,0.56c-0.17,0.14-0.34,0.23-0.5,0.28l-0.53,0.28l-0.76-0.2l0.03-0.45c0.02,0.01,0.07,0.02,0.14,0.03
			c0.07,0.01,0.15,0.02,0.24,0.02s0.15,0.01,0.2,0.01c0.24,0,0.43-0.06,0.59-0.17c0.15-0.11,0.27-0.26,0.34-0.44
			s0.11-0.38,0.11-0.59c0-0.42-0.09-0.73-0.28-0.92s-0.46-0.28-0.83-0.28H8.59v4.81c0,0.06,0.01,0.11,0.04,0.14
			c0.02,0.03,0.05,0.06,0.09,0.07l0.52,0.21v0.32H7.26z M11.85,15.92h-0.8c-0.15,0-0.26-0.02-0.33-0.05
			c-0.07-0.03-0.13-0.09-0.18-0.17c-0.05-0.08-0.11-0.19-0.19-0.33l-1.18-2.09l0.67-0.27l1.24,2.11c0.02,0.04,0.06,0.1,0.12,0.16
			s0.1,0.1,0.15,0.12l0.51,0.19V15.92z"/>
		<path class="st1" d="M14.51,16.06c-0.4,0-0.74-0.08-1-0.26s-0.47-0.39-0.61-0.66c-0.14-0.27-0.2-0.56-0.2-0.86v-3.69
			c0-0.06-0.01-0.1-0.04-0.13c-0.02-0.03-0.06-0.05-0.1-0.07l-0.5-0.22V9.86h1.95v0.31l-0.5,0.22c-0.04,0.01-0.06,0.04-0.09,0.07
			s-0.04,0.08-0.04,0.13v3.26c0,0.15,0.01,0.32,0.04,0.51s0.09,0.36,0.17,0.53c0.08,0.17,0.21,0.3,0.37,0.41s0.37,0.16,0.62,0.16
			s0.47-0.05,0.63-0.16c0.16-0.11,0.29-0.25,0.39-0.41s0.16-0.34,0.2-0.52c0.04-0.18,0.06-0.35,0.06-0.49v-3.25
			c0-0.06-0.01-0.1-0.04-0.13c-0.02-0.03-0.05-0.05-0.08-0.06l-0.5-0.25V9.86h1.7v0.31l-0.5,0.25c-0.04,0.02-0.06,0.04-0.09,0.07
			c-0.03,0.03-0.04,0.07-0.04,0.13v3.48c0,0.35-0.06,0.66-0.18,0.91c-0.12,0.25-0.27,0.45-0.46,0.61c-0.19,0.15-0.38,0.27-0.59,0.34
			C14.88,16.02,14.69,16.06,14.51,16.06z"/>
		<path class="st1" d="M17.59,15.92V15.6l0.53-0.21c0.04-0.02,0.07-0.04,0.09-0.07c0.02-0.03,0.03-0.08,0.03-0.14v-4.59
			c0-0.06-0.01-0.1-0.04-0.13c-0.02-0.03-0.05-0.05-0.09-0.07l-0.53-0.22V9.86h2.01v0.31l-0.53,0.22c-0.04,0.01-0.07,0.04-0.09,0.07
			s-0.04,0.08-0.04,0.13v4.59c0,0.06,0.01,0.11,0.04,0.14s0.06,0.06,0.09,0.07l0.53,0.21v0.32H17.59z"/>
		<path class="st1" d="M20.32,15.92V15.6l0.51-0.24c0.04-0.02,0.07-0.04,0.09-0.07c0.02-0.03,0.03-0.08,0.03-0.13v-4.56
			c0-0.06-0.01-0.1-0.04-0.14c-0.02-0.03-0.05-0.05-0.09-0.07l-0.53-0.22V9.86h1.35l2.28,4.18l0.25,0.54h0.05v-3.97
			c0-0.06-0.01-0.1-0.04-0.13s-0.06-0.05-0.09-0.07l-0.5-0.25V9.86h1.7v0.31l-0.5,0.25c-0.03,0.01-0.06,0.04-0.08,0.07
			c-0.03,0.03-0.04,0.07-0.04,0.13v4.37l-0.1,0.98h-0.39l-2.48-4.53l-0.25-0.55H21.4v4.28c0,0.06,0.01,0.11,0.04,0.14
			c0.03,0.03,0.05,0.05,0.08,0.07l0.5,0.24v0.32H20.32z"/>
		<path class="st1" d="M25.97,15.92V15.6l0.51-0.21c0.04-0.01,0.06-0.04,0.09-0.07s0.04-0.08,0.04-0.14v-4.59
			c0-0.06-0.01-0.1-0.04-0.13c-0.02-0.03-0.05-0.05-0.09-0.07l-0.51-0.22V9.86h2.16c0.19,0,0.39,0.03,0.6,0.08
			c0.21,0.06,0.42,0.15,0.63,0.29c0.21,0.14,0.4,0.32,0.57,0.55c0.17,0.23,0.31,0.52,0.41,0.87c0.1,0.35,0.15,0.77,0.15,1.25
			c0,0.69-0.11,1.26-0.32,1.7s-0.5,0.77-0.86,0.98s-0.76,0.32-1.2,0.32H25.97z M27.29,10.37v5.04h0.84c0.55,0,0.95-0.21,1.21-0.62
			c0.26-0.41,0.38-1,0.38-1.75c0-0.55-0.07-1.03-0.22-1.42c-0.15-0.4-0.36-0.71-0.63-0.92c-0.27-0.22-0.59-0.33-0.95-0.33H27.29z"/>
	</g>
</g>
<g>
	<g>
		<path class="st2" d="M7.42,19.92v-0.1l0.21-0.07c0.02,0,0.03-0.01,0.04-0.02c0.01-0.01,0.01-0.03,0.01-0.04v-0.67l-0.26,0.04
			l-0.5,0.73c-0.03,0.04-0.05,0.07-0.07,0.09s-0.04,0.04-0.07,0.05c-0.03,0.01-0.06,0.01-0.11,0.01l-0.29-0.02v-0.1l0.19-0.06
			c0.01,0,0.03-0.01,0.04-0.02c0.01-0.01,0.03-0.02,0.04-0.03c0.01-0.01,0.02-0.02,0.03-0.03l0.55-0.78
			c-0.06-0.04-0.11-0.1-0.15-0.17C7.04,18.67,7,18.6,6.97,18.53c-0.03-0.07-0.06-0.13-0.09-0.17s-0.06-0.07-0.1-0.07
			c-0.02,0-0.05,0-0.09,0.01c-0.04,0-0.08,0.01-0.12,0.01H6.53L6.52,18c0.03,0,0.06-0.01,0.09-0.01c0.03,0,0.06,0,0.09,0
			c0.06,0,0.12,0.01,0.16,0.03s0.08,0.06,0.12,0.11c0.04,0.05,0.07,0.1,0.09,0.15c0.02,0.05,0.04,0.11,0.06,0.17
			c0.02,0.06,0.05,0.12,0.08,0.19c0.04,0.06,0.09,0.13,0.15,0.2c0.02,0.03,0.05,0.04,0.09,0.06c0.03,0.01,0.07,0.02,0.1,0.02h0.13
			v-0.67c0-0.02,0-0.03-0.01-0.04c-0.01-0.01-0.02-0.02-0.04-0.02l-0.21-0.07v-0.1H8.2v0.1L8,18.18c-0.02,0.01-0.03,0.01-0.04,0.02
			c-0.01,0.01-0.01,0.02-0.01,0.04v0.67h0.13c0.03,0,0.07-0.01,0.1-0.02c0.03-0.01,0.06-0.03,0.09-0.06
			c0.07-0.07,0.12-0.14,0.15-0.2c0.03-0.07,0.06-0.13,0.08-0.19c0.02-0.06,0.04-0.12,0.06-0.17c0.02-0.05,0.05-0.1,0.09-0.15
			c0.04-0.05,0.08-0.08,0.12-0.11c0.04-0.02,0.1-0.03,0.16-0.03c0.03,0,0.06,0,0.09,0C9.04,18,9.07,18,9.11,18L9.09,18.3H9.04
			c-0.04,0-0.08,0-0.12-0.01c-0.04,0-0.07-0.01-0.09-0.01c-0.04,0-0.07,0.02-0.1,0.07c-0.03,0.05-0.06,0.1-0.09,0.17
			c-0.03,0.07-0.06,0.14-0.1,0.21C8.51,18.8,8.46,18.86,8.4,18.9l0.55,0.78c0.01,0.01,0.02,0.02,0.03,0.03S9,19.74,9.02,19.75
			c0.01,0.01,0.03,0.02,0.04,0.02l0.19,0.06v0.1l-0.3,0.02c-0.05,0-0.08,0-0.11-0.01c-0.03-0.01-0.05-0.03-0.07-0.05
			c-0.02-0.02-0.04-0.05-0.07-0.09l-0.5-0.73l-0.25-0.04v0.67c0,0.02,0,0.04,0.01,0.04c0.01,0.01,0.02,0.02,0.04,0.02l0.2,0.07v0.1
			H7.42z"/>
		<path class="st2" d="M9.42,19.92v-0.1l0.16-0.05c0.02,0,0.03-0.01,0.04-0.02c0.01-0.01,0.01-0.02,0.01-0.04v-1
			c0-0.02,0-0.03-0.01-0.04c-0.01-0.01-0.02-0.02-0.04-0.02l-0.16-0.05v-0.1h0.65v0.1l-0.12,0.05c-0.01,0.01-0.03,0.01-0.04,0.02
			c-0.01,0.01-0.02,0.02-0.02,0.04v0.7l-0.02,0.17h0.02l0.71-1v-0.09h0.47v0.1l-0.16,0.05c-0.02,0.01-0.03,0.01-0.04,0.02
			s-0.01,0.02-0.01,0.04v1c0,0.02,0,0.03,0.01,0.04s0.02,0.02,0.04,0.02l0.16,0.05v0.1h-0.65v-0.1l0.13-0.05
			c0.01-0.01,0.03-0.01,0.04-0.02c0.01-0.01,0.02-0.02,0.02-0.04v-0.7l0.02-0.17H10.6l-0.71,1v0.08H9.42z"/>
		<path class="st2" d="M11.36,19.92v-0.1l0.16-0.05c0.02-0.01,0.03-0.01,0.04-0.02c0.01-0.01,0.01-0.02,0.01-0.04v-1
			c0-0.02,0-0.03-0.01-0.04c-0.01-0.01-0.02-0.02-0.04-0.02l-0.16-0.05v-0.1h0.77c0.14,0,0.25,0.01,0.32,0.04s0.13,0.06,0.15,0.11
			c0.03,0.05,0.04,0.1,0.04,0.15c0,0.09-0.03,0.17-0.1,0.23s-0.15,0.11-0.25,0.13v0.01c0.08,0,0.16,0.02,0.22,0.05
			c0.07,0.03,0.12,0.07,0.16,0.12c0.04,0.05,0.06,0.11,0.06,0.18c0,0.11-0.03,0.19-0.08,0.25s-0.13,0.1-0.22,0.12
			s-0.18,0.03-0.28,0.03H11.36z M11.84,18.64v0.49l0.14-0.01c0.11-0.01,0.2-0.02,0.25-0.04c0.06-0.02,0.09-0.05,0.11-0.08
			c0.02-0.03,0.03-0.07,0.03-0.12c0-0.09-0.03-0.15-0.08-0.19s-0.13-0.06-0.25-0.06H11.84z M11.84,19.26v0.52h0.27
			c0.11,0,0.2-0.02,0.26-0.05c0.06-0.04,0.09-0.1,0.09-0.18c0-0.1-0.03-0.17-0.09-0.22c-0.06-0.04-0.16-0.07-0.3-0.07H11.84z"/>
		<path class="st2" d="M13.04,19.92v-0.1l0.16-0.05c0.02,0,0.03-0.01,0.04-0.02c0.01-0.01,0.01-0.02,0.01-0.04v-1
			c0-0.02,0-0.03-0.01-0.04s-0.02-0.02-0.04-0.02l-0.16-0.05v-0.1h0.65v0.1l-0.12,0.05c-0.01,0.01-0.03,0.01-0.04,0.02
			c-0.01,0.01-0.02,0.02-0.02,0.04v0.7l-0.02,0.17h0.02l0.71-1v-0.09h0.47v0.1l-0.16,0.05c-0.02,0.01-0.03,0.01-0.04,0.02
			c-0.01,0.01-0.01,0.02-0.01,0.04v1c0,0.02,0.01,0.03,0.01,0.04c0.01,0.01,0.02,0.02,0.04,0.02l0.16,0.05v0.1h-0.65v-0.1l0.12-0.05
			c0.01-0.01,0.03-0.01,0.04-0.02c0.01-0.01,0.02-0.02,0.02-0.04v-0.7l0.02-0.17h-0.02l-0.71,1v0.08H13.04z"/>
		<path class="st2" d="M15.84,19.92v-0.1L16,19.77c0.02-0.01,0.03-0.01,0.04-0.02s0.01-0.02,0.01-0.04v-1c0-0.02,0-0.03-0.01-0.04
			s-0.02-0.02-0.04-0.02l-0.16-0.05v-0.1h0.77c0.14,0,0.25,0.01,0.32,0.04c0.08,0.03,0.13,0.06,0.16,0.11
			c0.03,0.05,0.04,0.1,0.04,0.15c0,0.09-0.03,0.17-0.1,0.23c-0.06,0.06-0.15,0.11-0.25,0.13v0.01c0.08,0,0.16,0.02,0.22,0.05
			c0.07,0.03,0.12,0.07,0.16,0.12c0.04,0.05,0.06,0.11,0.06,0.18c0,0.11-0.03,0.19-0.08,0.25c-0.06,0.06-0.13,0.1-0.22,0.12
			c-0.09,0.02-0.18,0.03-0.28,0.03H15.84z M16.31,18.64v0.49l0.14-0.01c0.11-0.01,0.2-0.02,0.25-0.04s0.09-0.05,0.11-0.08
			c0.02-0.03,0.03-0.07,0.03-0.12c0-0.09-0.03-0.15-0.08-0.19s-0.13-0.06-0.25-0.06H16.31z M16.31,19.26v0.52h0.27
			c0.11,0,0.2-0.02,0.26-0.05s0.09-0.1,0.09-0.18c0-0.1-0.03-0.17-0.09-0.22c-0.06-0.04-0.16-0.07-0.3-0.07H16.31z"/>
		<path class="st2" d="M18.37,19.92v-0.1l0.16-0.05c0.02-0.01,0.03-0.01,0.04-0.02s0.01-0.02,0.01-0.04v-1c0-0.02,0-0.03-0.01-0.04
			s-0.02-0.02-0.04-0.02l-0.16-0.05v-0.1h0.66v0.1l-0.12,0.05c-0.01,0.01-0.03,0.01-0.04,0.02c-0.01,0.01-0.02,0.02-0.02,0.04v0.44
			h0.13c0.04,0,0.07,0,0.1-0.01c0.03-0.01,0.06-0.03,0.08-0.05c0.04-0.04,0.07-0.09,0.09-0.15s0.05-0.13,0.07-0.19
			c0.02-0.06,0.05-0.11,0.08-0.15c0.04-0.04,0.08-0.08,0.11-0.1c0.04-0.02,0.09-0.03,0.15-0.03c0.03,0,0.06,0,0.08,0
			s0.05,0.01,0.08,0.01l-0.01,0.26h-0.05c-0.04,0-0.07-0.01-0.11-0.01c-0.04,0-0.06,0-0.08,0c-0.03,0-0.05,0.01-0.06,0.04
			s-0.03,0.07-0.05,0.11s-0.04,0.09-0.07,0.14c-0.03,0.05-0.06,0.09-0.1,0.12l0.36,0.57c0.01,0.02,0.02,0.03,0.04,0.04
			c0.02,0.01,0.03,0.02,0.05,0.02l0.18,0.05v0.1l-0.3,0.02c-0.06,0-0.11,0-0.14-0.03c-0.03-0.02-0.06-0.06-0.09-0.12l-0.28-0.5
			l-0.24-0.05v0.46c0,0.02,0.01,0.03,0.02,0.04c0.01,0.01,0.02,0.02,0.04,0.02l0.12,0.05v0.1H18.37z"/>
		<path class="st2" d="M20.52,19.95c-0.09,0-0.16-0.02-0.22-0.06s-0.11-0.09-0.14-0.15c-0.03-0.06-0.05-0.13-0.05-0.2
			c0-0.09,0.02-0.17,0.07-0.23c0.04-0.06,0.1-0.11,0.17-0.15c0.07-0.04,0.15-0.07,0.23-0.08c0.08-0.02,0.15-0.03,0.22-0.03
			c0.01,0,0.04,0,0.07,0c0.03,0,0.06,0,0.09,0.01c0.03,0,0.05,0,0.06,0.01l0-0.2c0-0.1-0.02-0.17-0.07-0.21
			c-0.05-0.04-0.12-0.06-0.19-0.06c-0.05,0-0.09,0.01-0.14,0.02c-0.05,0.02-0.09,0.04-0.13,0.06s-0.08,0.05-0.12,0.07
			c-0.04,0.02-0.07,0.04-0.09,0.06h-0.05l-0.01-0.26c0.05-0.02,0.1-0.04,0.16-0.06c0.05-0.02,0.11-0.03,0.18-0.05
			s0.14-0.02,0.22-0.02c0.09,0,0.17,0.01,0.25,0.04s0.14,0.07,0.19,0.14s0.08,0.16,0.07,0.29l0,0.74c0,0.03,0.01,0.06,0.04,0.08
			s0.06,0.03,0.09,0.03c0.02,0,0.04,0,0.06-0.01c0.02-0.01,0.05-0.02,0.07-0.03h0.02v0.11c-0.02,0.01-0.04,0.03-0.07,0.05
			s-0.07,0.04-0.1,0.05c-0.04,0.01-0.07,0.02-0.1,0.02c-0.08,0-0.15-0.02-0.19-0.06c-0.04-0.04-0.06-0.1-0.06-0.18h-0.02
			c-0.05,0.07-0.1,0.12-0.16,0.16c-0.06,0.03-0.12,0.06-0.18,0.07S20.57,19.95,20.52,19.95z M20.65,19.76c0.06,0,0.12-0.01,0.2-0.04
			c0.07-0.03,0.13-0.06,0.17-0.12v-0.4c-0.12,0-0.23,0.01-0.33,0.02c-0.09,0.02-0.17,0.04-0.22,0.09c-0.05,0.04-0.08,0.11-0.08,0.19
			c0,0.07,0.01,0.12,0.04,0.16c0.03,0.04,0.06,0.06,0.1,0.08C20.57,19.75,20.61,19.76,20.65,19.76z"/>
		<path class="st2" d="M21.72,19.92v-0.1l0.16-0.05c0.02,0,0.03-0.01,0.04-0.02c0.01-0.01,0.01-0.02,0.01-0.04v-1
			c0-0.02,0-0.03-0.01-0.04s-0.02-0.02-0.04-0.02l-0.16-0.05v-0.1h0.65v0.1l-0.12,0.05c-0.01,0.01-0.03,0.01-0.04,0.02
			c-0.01,0.01-0.02,0.02-0.02,0.04v0.7l-0.02,0.17h0.02l0.71-1v-0.09h0.47v0.1l-0.16,0.05c-0.02,0.01-0.03,0.01-0.04,0.02
			c-0.01,0.01-0.01,0.02-0.01,0.04v1c0,0.02,0,0.03,0.01,0.04c0.01,0.01,0.02,0.02,0.04,0.02l0.16,0.05v0.1h-0.66v-0.1l0.13-0.05
			c0.01-0.01,0.03-0.01,0.04-0.02c0.01-0.01,0.02-0.02,0.02-0.04v-0.7l0.02-0.17H22.9l-0.71,1v0.08H21.72z M22.57,18.26
			c-0.12,0-0.22-0.02-0.29-0.05c-0.07-0.03-0.12-0.08-0.15-0.12s-0.05-0.09-0.05-0.13v-0.11h0.28v0.05l-0.01,0.17
			c0.02,0.03,0.05,0.05,0.09,0.06c0.04,0.01,0.08,0.02,0.13,0.02c0.05,0,0.09-0.01,0.13-0.02c0.04-0.01,0.07-0.03,0.09-0.06
			l-0.01-0.17v-0.05h0.28v0.11c0,0.04-0.02,0.08-0.05,0.13c-0.03,0.05-0.08,0.09-0.15,0.12C22.78,18.25,22.69,18.26,22.57,18.26z"/>
		<path class="st2" d="M24.48,18.46l0,0.13c-0.19,0.01-0.32,0.06-0.41,0.16c-0.08,0.1-0.12,0.25-0.12,0.45
			c0,0.11,0.02,0.21,0.05,0.3s0.09,0.16,0.17,0.22c0.08,0.06,0.18,0.09,0.3,0.09l0,0.13c-0.11,0-0.22-0.02-0.31-0.05
			c-0.1-0.04-0.19-0.09-0.26-0.15c-0.08-0.07-0.14-0.14-0.18-0.23c-0.04-0.09-0.07-0.19-0.07-0.3c0-0.18,0.04-0.32,0.11-0.43
			c0.07-0.11,0.17-0.19,0.3-0.24C24.2,18.49,24.33,18.46,24.48,18.46z M24.22,20.58v-0.1l0.19-0.05c0.02,0,0.03-0.01,0.04-0.02
			s0.01-0.02,0.01-0.04v-2.34c0-0.02-0.01-0.03-0.02-0.04c-0.01-0.01-0.02-0.02-0.04-0.03l-0.17-0.07v-0.1l0.49-0.02v2.6
			c0,0.02,0,0.03,0.02,0.04s0.02,0.02,0.04,0.02l0.19,0.06v0.1H24.22z M24.7,18.59l0-0.13c0.15,0,0.29,0.03,0.41,0.08
			s0.22,0.13,0.3,0.24c0.07,0.11,0.11,0.25,0.11,0.43c0,0.11-0.02,0.21-0.06,0.3c-0.04,0.09-0.1,0.17-0.18,0.23
			c-0.08,0.07-0.16,0.12-0.26,0.15c-0.1,0.04-0.21,0.05-0.32,0.05l0-0.13c0.12,0,0.23-0.03,0.3-0.09c0.08-0.06,0.13-0.13,0.17-0.22
			s0.05-0.19,0.05-0.3c0-0.21-0.04-0.36-0.12-0.46C25.02,18.66,24.89,18.6,24.7,18.59z"/>
	</g>
</g>
</svg>
