<svg width="32" height="32" viewBox="0 0 32 32" fill="none" xmlns="http://www.w3.org/2000/svg">
<g id="taxi 2">
<g id="taxi 2_2">
<path id="Vector" d="M26.2102 14H24.4102L18.0602 7.65C17.8562 7.44373 17.6132 7.28004 17.3454 7.16846C17.0776 7.05688 16.7903 6.99961 16.5002 7H16.0002V6C16.0002 5.73478 15.8948 5.48043 15.7073 5.29289C15.5198 5.10536 15.2654 5 15.0002 5C14.735 5 14.4806 5.10536 14.2931 5.29289C14.1055 5.48043 14.0002 5.73478 14.0002 6V7H7.91019C7.43156 7.00252 6.96656 7.15966 6.58452 7.44799C6.20248 7.73632 5.92386 8.14041 5.79019 8.6L4.24019 14C3.62228 14.0577 3.04875 14.346 2.6337 14.8074C2.21864 15.2687 1.99247 15.8694 2.00019 16.49V23C2.00019 23.2652 2.10555 23.5196 2.29308 23.7071C2.48062 23.8946 2.73497 24 3.00019 24H6.05019C6.09792 24.8894 6.48484 25.7266 7.1313 26.3393C7.77775 26.952 8.63452 27.2935 9.52519 27.2935C10.4159 27.2935 11.2726 26.952 11.9191 26.3393C12.5655 25.7266 12.9525 24.8894 13.0002 24H19.1002C19.2108 24.8367 19.6216 25.6047 20.2563 26.161C20.891 26.7173 21.7062 27.024 22.5502 27.024C23.3942 27.024 24.2094 26.7173 24.8441 26.161C25.4787 25.6047 25.8896 24.8367 26.0002 24H29.0002C29.2654 24 29.5198 23.8946 29.7073 23.7071C29.8948 23.5196 30.0002 23.2652 30.0002 23V17.79C30.0002 16.7848 29.6009 15.8208 28.8901 15.1101C28.1794 14.3993 27.2154 14 26.2102 14ZM16.6502 9.06L21.5902 14H13.0002V9H16.5002C16.556 9.00025 16.6096 9.0217 16.6502 9.06ZM7.71019 9.15C7.72305 9.10686 7.74943 9.069 7.78544 9.042C7.82145 9.01499 7.86518 9.00027 7.91019 9H11.0002V14H6.33019L7.71019 9.15ZM9.50019 25C9.20352 25 8.91351 24.912 8.66684 24.7472C8.42016 24.5824 8.2279 24.3481 8.11437 24.074C8.00084 23.7999 7.97114 23.4983 8.02901 23.2074C8.08689 22.9164 8.22975 22.6491 8.43953 22.4393C8.64931 22.2296 8.91658 22.0867 9.20756 22.0288C9.49853 21.9709 9.80013 22.0007 10.0742 22.1142C10.3483 22.2277 10.5826 22.42 10.7474 22.6666C10.9122 22.9133 11.0002 23.2033 11.0002 23.5C11.0002 23.8978 10.8422 24.2794 10.5609 24.5607C10.2795 24.842 9.89802 25 9.50019 25ZM22.5002 25C22.2035 25 21.9135 24.912 21.6668 24.7472C21.4202 24.5824 21.2279 24.3481 21.1144 24.074C21.0008 23.7999 20.9711 23.4983 21.029 23.2074C21.0869 22.9164 21.2298 22.6491 21.4395 22.4393C21.6493 22.2296 21.9166 22.0867 22.2076 22.0288C22.4985 21.9709 22.8001 22.0007 23.0742 22.1142C23.3483 22.2277 23.5826 22.42 23.7474 22.6666C23.9122 22.9133 24.0002 23.2033 24.0002 23.5C24.0002 23.8978 23.8422 24.2794 23.5609 24.5607C23.2795 24.842 22.898 25 22.5002 25ZM28.0002 22H25.6502C25.3693 21.4018 24.9239 20.896 24.3661 20.5417C23.8082 20.1873 23.161 19.9992 22.5002 19.9992C21.8393 19.9992 21.1922 20.1873 20.6343 20.5417C20.0765 20.896 19.6311 21.4018 19.3502 22H12.6502C12.3693 21.4018 11.9239 20.896 11.3661 20.5417C10.8082 20.1873 10.161 19.9992 9.50019 19.9992C8.83934 19.9992 8.19215 20.1873 7.63432 20.5417C7.07649 20.896 6.63108 21.4018 6.35019 22H4.00019V16.49C4.00019 16.36 4.05182 16.2354 4.14371 16.1435C4.2356 16.0516 4.36023 16 4.49019 16H26.2102C26.6841 16.0026 27.1379 16.1921 27.473 16.5272C27.8081 16.8623 27.9976 17.3161 28.0002 17.79V22Z" fill="#151515"/>
<path id="Vector_2" d="M15 17H14C13.7348 17 13.4804 17.1054 13.2929 17.2929C13.1054 17.4804 13 17.7348 13 18C13 18.2652 13.1054 18.5196 13.2929 18.7071C13.4804 18.8946 13.7348 19 14 19H15C15.2652 19 15.5196 18.8946 15.7071 18.7071C15.8946 18.5196 16 18.2652 16 18C16 17.7348 15.8946 17.4804 15.7071 17.2929C15.5196 17.1054 15.2652 17 15 17Z" fill="#151515"/>
</g>
</g>
</svg>
