<svg width="32" height="32" viewBox="0 0 32 32" fill="none" xmlns="http://www.w3.org/2000/svg">
<g id="directional sign">
<g id="directional sign_2">
<path id="Vector" d="M29.5298 17.65L25.5298 15.15C25.3707 15.0514 25.187 14.9994 24.9998 15H18.9998V14H20.4098C20.8315 14 21.2359 13.8325 21.5341 13.5343C21.8323 13.2361 21.9998 12.8317 21.9998 12.41V8.59C21.9998 8.16831 21.8323 7.76388 21.5341 7.4657C21.2359 7.16752 20.8315 7 20.4098 7H18.9998V5C18.9998 4.20435 18.6837 3.44129 18.1211 2.87868C17.5585 2.31607 16.7954 2 15.9998 2C15.2042 2 14.4411 2.31607 13.8785 2.87868C13.3159 3.44129 12.9998 4.20435 12.9998 5V7H6.9998C6.81257 6.9994 6.62894 7.05137 6.4698 7.15L2.4698 9.65C2.32509 9.73968 2.20567 9.86483 2.12286 10.0136C2.04005 10.1623 1.99658 10.3298 1.99658 10.5C1.99658 10.6702 2.04005 10.8377 2.12286 10.9864C2.20567 11.1352 2.32509 11.2603 2.4698 11.35L6.4698 13.85C6.62894 13.9486 6.81257 14.0006 6.9998 14H12.9998V15H11.5898C11.1681 15 10.7637 15.1675 10.4655 15.4657C10.1673 15.7639 9.9998 16.1683 9.9998 16.59V20.41C9.9998 20.8317 10.1673 21.2361 10.4655 21.5343C10.7637 21.8325 11.1681 22 11.5898 22H12.9998V28H11.9998C11.7346 28 11.4802 28.1054 11.2927 28.2929C11.1052 28.4804 10.9998 28.7348 10.9998 29C10.9998 29.2652 11.1052 29.5196 11.2927 29.7071C11.4802 29.8946 11.7346 30 11.9998 30H19.9998C20.265 30 20.5194 29.8946 20.7069 29.7071C20.8944 29.5196 20.9998 29.2652 20.9998 29C20.9998 28.7348 20.8944 28.4804 20.7069 28.2929C20.5194 28.1054 20.265 28 19.9998 28H18.9998V22H24.9998C25.187 22.0006 25.3707 21.9486 25.5298 21.85L29.5298 19.35C29.6745 19.2603 29.7939 19.1352 29.8767 18.9864C29.9596 18.8377 30.003 18.6702 30.003 18.5C30.003 18.3298 29.9596 18.1623 29.8767 18.0136C29.7939 17.8648 29.6745 17.7397 29.5298 17.65ZM14.9998 5C14.9998 4.73478 15.1052 4.48043 15.2927 4.29289C15.4802 4.10536 15.7346 4 15.9998 4C16.265 4 16.5194 4.10536 16.7069 4.29289C16.8944 4.48043 16.9998 4.73478 16.9998 5V7H14.9998V5ZM4.8898 10.5L7.2898 9H19.9998V12H7.2898L4.8898 10.5ZM14.9998 14H16.9998V15H14.9998V14ZM16.9998 28H14.9998V22H16.9998V28ZM24.7098 20H11.9998V17H24.7098L27.1098 18.5L24.7098 20Z" fill="#151515"/>
</g>
</g>
</svg>
