<svg width="32" height="32" viewBox="0 0 32 32" fill="none" xmlns="http://www.w3.org/2000/svg">
<g id="suitcase">
<g id="suitcase_2">
<path id="Vector" d="M27.92 8H22V6.79C22 5.78483 21.6007 4.82083 20.8899 4.11007C20.1792 3.3993 19.2152 3 18.21 3H13.79C12.7848 3 11.8208 3.3993 11.1101 4.11007C10.3993 4.82083 10 5.78483 10 6.79V8H4.08C3.52916 8.00263 3.00163 8.22262 2.61212 8.61212C2.22262 9.00163 2.00263 9.52916 2 10.08V24.92C2.00263 25.4708 2.22262 25.9984 2.61212 26.3879C3.00163 26.7774 3.52916 26.9974 4.08 27H27.92C28.4708 26.9974 28.9984 26.7774 29.3879 26.3879C29.7774 25.9984 29.9974 25.4708 30 24.92V10.08C29.9974 9.52916 29.7774 9.00163 29.3879 8.61212C28.9984 8.22262 28.4708 8.00263 27.92 8ZM24 10V14H23V10H24ZM11 10H21V25H11V10ZM12 6.79C12.0026 6.31607 12.1921 5.8623 12.5272 5.52718C12.8623 5.19206 13.3161 5.00263 13.79 5H18.21C18.6839 5.00263 19.1377 5.19206 19.4728 5.52718C19.8079 5.8623 19.9974 6.31607 20 6.79V8H12V6.79ZM9 10V14H8V10H9ZM4 24.92V10.08C4.00217 10.0595 4.0113 10.0404 4.02586 10.0259C4.04042 10.0113 4.05953 10.0022 4.08 10H6V25H4.08C4.05953 24.9978 4.04042 24.9887 4.02586 24.9741C4.0113 24.9596 4.00217 24.9405 4 24.92ZM8 25V16H9V25H8ZM23 25V16H24V25H23ZM28 24.92C27.9978 24.9405 27.9887 24.9596 27.9741 24.9741C27.9596 24.9887 27.9405 24.9978 27.92 25H26V10H27.92C27.9405 10.0022 27.9596 10.0113 27.9741 10.0259C27.9887 10.0404 27.9978 10.0595 28 10.08V24.92Z" fill="#151515"/>
</g>
</g>
</svg>
