<svg width="32" height="32" viewBox="0 0 32 32" fill="none" xmlns="http://www.w3.org/2000/svg">
<g id="traffic lights">
<g id="traffic lights_2">
<path id="Vector" d="M16 6C15.4067 6 14.8266 6.17595 14.3333 6.50559C13.8399 6.83524 13.4554 7.30377 13.2284 7.85195C13.0013 8.40013 12.9419 9.00333 13.0576 9.58527C13.1734 10.1672 13.4591 10.7018 13.8787 11.1213C14.2982 11.5409 14.8328 11.8266 15.4147 11.9424C15.9967 12.0581 16.5999 11.9987 17.1481 11.7716C17.6962 11.5446 18.1648 11.1601 18.4944 10.6667C18.8241 10.1734 19 9.59334 19 9C19 8.20435 18.6839 7.44129 18.1213 6.87868C17.5587 6.31607 16.7957 6 16 6ZM16 10C15.8022 10 15.6089 9.94135 15.4444 9.83147C15.28 9.72159 15.1518 9.56541 15.0761 9.38268C15.0004 9.19996 14.9806 8.99889 15.0192 8.80491C15.0578 8.61093 15.153 8.43275 15.2929 8.29289C15.4327 8.15304 15.6109 8.0578 15.8049 8.01921C15.9989 7.98063 16.2 8.00043 16.3827 8.07612C16.5654 8.15181 16.7216 8.27998 16.8315 8.44443C16.9414 8.60888 17 8.80222 17 9C17 9.26522 16.8946 9.51957 16.7071 9.70711C16.5196 9.89464 16.2652 10 16 10Z" fill="#151515"/>
<path id="Vector_2" d="M16 13C15.4067 13 14.8266 13.1759 14.3333 13.5056C13.8399 13.8352 13.4554 14.3038 13.2284 14.8519C13.0013 15.4001 12.9419 16.0033 13.0576 16.5853C13.1734 17.1672 13.4591 17.7018 13.8787 18.1213C14.2982 18.5409 14.8328 18.8266 15.4147 18.9424C15.9967 19.0581 16.5999 18.9987 17.1481 18.7716C17.6962 18.5446 18.1648 18.1601 18.4944 17.6667C18.8241 17.1734 19 16.5933 19 16C19 15.2044 18.6839 14.4413 18.1213 13.8787C17.5587 13.3161 16.7957 13 16 13ZM16 17C15.8022 17 15.6089 16.9414 15.4444 16.8315C15.28 16.7216 15.1518 16.5654 15.0761 16.3827C15.0004 16.2 14.9806 15.9989 15.0192 15.8049C15.0578 15.6109 15.153 15.4327 15.2929 15.2929C15.4327 15.153 15.6109 15.0578 15.8049 15.0192C15.9989 14.9806 16.2 15.0004 16.3827 15.0761C16.5654 15.1518 16.7216 15.28 16.8315 15.4444C16.9414 15.6089 17 15.8022 17 16C17 16.2652 16.8946 16.5196 16.7071 16.7071C16.5196 16.8946 16.2652 17 16 17Z" fill="#151515"/>
<path id="Vector_3" d="M16 20C15.4067 20 14.8266 20.1759 14.3333 20.5056C13.8399 20.8352 13.4554 21.3038 13.2284 21.8519C13.0013 22.4001 12.9419 23.0033 13.0576 23.5853C13.1734 24.1672 13.4591 24.7018 13.8787 25.1213C14.2982 25.5409 14.8328 25.8266 15.4147 25.9424C15.9967 26.0581 16.5999 25.9987 17.1481 25.7716C17.6962 25.5446 18.1648 25.1601 18.4944 24.6667C18.8241 24.1734 19 23.5933 19 23C19 22.2044 18.6839 21.4413 18.1213 20.8787C17.5587 20.3161 16.7957 20 16 20ZM16 24C15.8022 24 15.6089 23.9414 15.4444 23.8315C15.28 23.7216 15.1518 23.5654 15.0761 23.3827C15.0004 23.2 14.9806 22.9989 15.0192 22.8049C15.0578 22.6109 15.153 22.4327 15.2929 22.2929C15.4327 22.153 15.6109 22.0578 15.8049 22.0192C15.9989 21.9806 16.2 22.0004 16.3827 22.0761C16.5654 22.1518 16.7216 22.28 16.8315 22.4444C16.9414 22.6089 17 22.8022 17 23C17 23.2652 16.8946 23.5196 16.7071 23.7071C16.5196 23.8946 16.2652 24 16 24Z" fill="#151515"/>
<path id="Vector_4" d="M26.6402 15.76C27.5099 15.0368 28.4554 14.4098 29.4601 13.89C29.6602 13.7875 29.8199 13.6206 29.9135 13.4163C30.007 13.2119 30.029 12.9819 29.9758 12.7635C29.9227 12.5451 29.7975 12.351 29.6205 12.2125C29.4435 12.074 29.2249 11.9991 29.0002 12H23.7602C25.1862 9.83237 27.1502 8.0717 29.4601 6.89002C29.6602 6.78754 29.8199 6.62064 29.9135 6.41626C30.007 6.21188 30.029 5.98193 29.9758 5.76353C29.9227 5.54513 29.7975 5.351 29.6205 5.21248C29.4435 5.07396 29.2249 4.99911 29.0002 5.00002H23.0002C22.9481 4.45445 22.6951 3.94769 22.2905 3.57811C21.8858 3.20853 21.3582 3.0025 20.8102 3.00002H11.2101C10.6587 2.99753 10.1262 3.20132 9.71724 3.57138C9.30833 3.94144 9.05255 4.45102 9.00015 5.00002H3.00015C2.77537 4.99911 2.55684 5.07396 2.37982 5.21248C2.2028 5.351 2.07761 5.54513 2.02446 5.76353C1.9713 5.98193 1.99328 6.21188 2.08684 6.41626C2.1804 6.62064 2.3401 6.78754 2.54015 6.89002C3.54721 7.40975 4.49307 8.04032 5.36015 8.77002C6.46843 9.7047 7.43814 10.7923 8.24015 12H3.00015C2.77537 11.9991 2.55684 12.074 2.37982 12.2125C2.2028 12.351 2.07761 12.5451 2.02446 12.7635C1.9713 12.9819 1.99328 13.2119 2.08684 13.4163C2.1804 13.6206 2.3401 13.7875 2.54015 13.89C3.54721 14.4097 4.49307 15.0403 5.36015 15.77C6.15437 16.4377 6.87815 17.1849 7.52015 18H3.00015C2.77537 17.9991 2.55684 18.074 2.37982 18.2125C2.2028 18.351 2.07761 18.5451 2.02446 18.7635C1.9713 18.9819 1.99328 19.2119 2.08684 19.4163C2.1804 19.6206 2.3401 19.7875 2.54015 19.89C3.54721 20.4097 4.49307 21.0403 5.36015 21.77C6.84803 23.0255 8.08335 24.5526 9.00015 26.27V26.79C9.00015 27.0802 9.05731 27.3676 9.16838 27.6358C9.27944 27.9039 9.44223 28.1475 9.64744 28.3527C9.85266 28.5579 10.0963 28.7207 10.3644 28.8318C10.6325 28.9429 10.9199 29 11.2101 29H20.7902C21.3763 29 21.9384 28.7672 22.3529 28.3527C22.7673 27.9383 23.0002 27.3762 23.0002 26.79V26.27C23.9195 24.5515 25.1544 23.0215 26.6402 21.76C27.5099 21.0368 28.4554 20.4098 29.4601 19.89C29.6602 19.7875 29.8199 19.6206 29.9135 19.4163C30.007 19.2119 30.029 18.9819 29.9758 18.7635C29.9227 18.5451 29.7975 18.351 29.6205 18.2125C29.4435 18.074 29.2249 17.9991 29.0002 18H24.4802C25.1246 17.1841 25.8482 16.4337 26.6402 15.76ZM25.3602 7.23002C24.4969 7.95823 23.7065 8.76872 23.0002 9.65002V7.00002H25.6402L25.3602 7.23002ZM6.64015 7.23002L6.36015 7.00002H9.00015V9.65002C8.29633 8.76955 7.50568 7.96215 6.64015 7.24002V7.23002ZM6.36015 14H9.00015V16.65C8.29633 15.7696 7.50568 14.9621 6.64015 14.24L6.36015 14ZM6.64015 20.24L6.36015 20H8.84015L9.00015 20.27V22.65C8.29633 21.7696 7.50568 20.9621 6.64015 20.24ZM21.0002 26.79C20.9977 26.8449 20.9748 26.8969 20.9359 26.9358C20.8971 26.9747 20.8451 26.9976 20.7902 27H11.2101C11.1552 26.9976 11.1032 26.9747 11.0644 26.9358C11.0255 26.8969 11.0026 26.8449 11.0001 26.79V5.21002C11.0026 5.15511 11.0255 5.10311 11.0644 5.06424C11.1032 5.02538 11.1552 5.00247 11.2101 5.00002H20.7902C20.8451 5.00247 20.8971 5.02538 20.9359 5.06424C20.9748 5.10311 20.9977 5.15511 21.0002 5.21002V26.79ZM25.6402 20L25.3602 20.23C24.4969 20.9582 23.7065 21.7687 23.0002 22.65V20.27L23.1602 20H25.6402ZM23.0002 16.65V14H25.6402L25.3602 14.23C24.4969 14.9582 23.7065 15.7687 23.0002 16.65Z" fill="#151515"/>
</g>
</g>
</svg>
