<svg width="367" height="43" viewBox="0 0 367 43" fill="none" xmlns="http://www.w3.org/2000/svg">
<path fill-rule="evenodd" clip-rule="evenodd" d="M21.5558 0H0V21.6175H21.5557V43.2348H43.1115V21.6173H21.5558V0ZM43.2213 0H64.7771V21.6175H43.2213V0ZM151.111 0H129.555V21.6175H151.111L151.11 43.2348H172.666L172.666 21.6175H194.222V0H172.666L172.666 21.6173H151.11L151.111 0ZM237.444 0H215.888V21.6175H237.444L237.444 43.2348H258.999L258.999 21.6175H280.555V0H258.999V21.6175H237.444V0ZM302.221 0H323.777V21.6175H345.333L345.333 43.2348H323.777V21.6173L302.221 21.6175V0ZM345.333 21.6175V0H366.888V21.6175H345.333ZM410 0H388.444V21.6175L366.889 21.6173V43.2348H388.444L388.444 21.6175H410V0ZM345.333 43.2349H366.888V64.8524H345.333V43.2349ZM410 43.2349H388.444V64.8524H410V43.2349ZM302.221 43.2349H323.777V64.8524H302.221V43.2349ZM280.555 21.6173H302.111V43.2348H280.555V21.6173ZM280.555 43.2349H258.999V64.8524H280.555V43.2349ZM215.888 43.2349H237.444V64.8524H215.888V43.2349ZM86.3332 0H107.889V21.6175H86.3333V43.2348H64.7775V21.6173H86.3332V0ZM215.778 21.6173H194.222V43.2348H215.778V21.6173ZM107.889 21.6173H129.445V43.2348H107.889V21.6173ZM194.222 43.2349H172.666V64.8524H194.222V43.2349ZM86.3332 43.2349H107.889V64.8524H86.3332V43.2349ZM151.111 43.2349H129.555V64.8524H151.111V43.2349ZM43.2213 43.2349H64.7771V64.8524H43.2213V43.2349ZM21.5558 43.2349H0V64.8524H21.5558V43.2349Z" fill="#444444"/>
</svg>
