<svg width="25" height="24" viewBox="0 0 25 24" fill="none" xmlns="http://www.w3.org/2000/svg">
<g id="Icon">
<path id="Subtract" fill-rule="evenodd" clip-rule="evenodd" d="M12.6001 2.25C7.21532 2.25 2.8501 6.61522 2.8501 12C2.8501 17.3848 7.21532 21.75 12.6001 21.75C17.9849 21.75 22.3501 17.3848 22.3501 12C22.3501 6.61522 17.9849 2.25 12.6001 2.25ZM13.3501 6C13.3501 5.58579 13.0143 5.25 12.6001 5.25C12.1859 5.25 11.8501 5.58579 11.8501 6V12C11.8501 12.4142 12.1859 12.75 12.6001 12.75H17.1001C17.5143 12.75 17.8501 12.4142 17.8501 12C17.8501 11.5858 17.5143 11.25 17.1001 11.25H13.3501V6Z" fill="#999999"/>
</g>
</svg>
