<svg width="32" height="34" viewBox="0 0 32 34" fill="none" xmlns="http://www.w3.org/2000/svg">
<path d="M31.9266 2.15819L31.7232 0L29.6891 0.685138C26.203 1.90904 22.4803 2.28462 18.8236 1.78136C14.981 1.1788 11.0481 1.71425 7.50038 3.32292C5.61965 4.13215 3.9691 5.40388 2.69901 7.02234C1.42891 8.6408 0.579624 10.5546 0.228459 12.5894C-0.226877 15.2181 0.000913761 17.9212 0.889543 20.4343C1.46173 19.1292 2.13035 17.8696 2.88974 16.666C4.61229 14.105 6.99911 12.0724 9.78875 10.7909C12.4762 9.55104 15.4137 8.96443 18.3659 9.07808C15.5557 9.51326 12.8658 10.534 10.4668 12.0756C9.31006 12.8104 8.25059 13.691 7.31392 14.6962C6.41853 15.7013 5.62891 16.7977 4.95775 17.9678C3.69773 20.4138 2.80102 23.034 2.29646 25.7441C1.75268 28.4629 1.45762 31.2265 1.41502 34H4.80519C4.96628 31.5128 5.30047 29.0402 5.80529 26.6005C8.15711 27.8838 10.7945 28.5382 13.4671 28.5018C15.9597 28.5 18.4266 27.9933 20.7221 27.0116C33.6217 21.4448 31.9266 2.92897 31.9266 2.15819Z" fill="#1F1F1F"/>
</svg>
