<svg width="35" height="35" viewBox="0 0 35 35" fill="none" xmlns="http://www.w3.org/2000/svg">
<path d="M21.728 6.91549C22.2819 5.82357 22.3944 4.55954 22.0422 3.38653C21.6899 2.21352 20.9 1.22191 19.8369 0.618122C18.7738 0.0143357 17.5193 -0.155102 16.3347 0.145081C15.1501 0.445264 14.1266 1.19194 13.4773 2.22967L7 12.4341V29.1515C7 30.7026 7.61458 32.1902 8.70854 33.287C9.80251 34.3838 11.2862 35 12.8333 35H24.5C25.4056 35 26.2988 34.7886 27.1087 34.3826C27.9187 33.9765 28.6233 33.387 29.1667 32.6606L35 24.8634V17.4545C35 15.9034 34.3854 14.4158 33.2915 13.319C32.1975 12.2222 30.7138 11.606 29.1667 11.606H19.3877L21.728 6.91549ZM0 11.606V35H2.33333V11.606H0Z" fill="#1F1F1F"/>
</svg>
