<svg width="30" height="34" viewBox="0 0 30 34" fill="none" xmlns="http://www.w3.org/2000/svg">
<path d="M19.1667 7.65C19.1667 6.222 21.6667 3.4 21.6667 3.4C21.6667 3.4 24.1667 6.222 24.1667 7.65C24.1667 9.061 23.05 10.2 21.6667 10.2C20.2833 10.2 19.1667 9.061 19.1667 7.65ZM25.8333 22.1C26.9384 22.1 27.9982 21.6522 28.7796 20.8552C29.561 20.0582 30 18.9772 30 17.85C30 15.011 25.8333 10.2 25.8333 10.2C25.8333 10.2 21.6667 15.011 21.6667 17.85C21.6667 18.9772 22.1057 20.0582 22.8871 20.8552C23.6685 21.6522 24.7283 22.1 25.8333 22.1ZM20 17V34H0V17C0 11.951 3.6 7.769 8.33333 6.953V3.4H5V0H15C16.8833 0 18.5833 0.663 20 1.7L17.6 4.148C16.8333 3.689 15.95 3.4 15 3.4H11.6667V6.953C16.4 7.769 20 11.951 20 17Z" fill="#1F1F1F"/>
</svg>
